<mxfile host="app.diagrams.net" modified="2022-08-25T00:05:53.642Z" agent="5.0 (Windows NT 10.0; Win64; x64) AppleWebKit/537.36 (KHTML, like Gecko) Chrome/104.0.0.0 Safari/537.36" etag="o4OfrgSUokkrI0dP6h63" version="20.2.7" type="github">
  <diagram id="C5RBs43oDa-KdzZeNtuy" name="Page-1">
    <mxGraphModel dx="868" dy="482" grid="1" gridSize="10" guides="1" tooltips="1" connect="1" arrows="1" fold="1" page="1" pageScale="1" pageWidth="827" pageHeight="1169" math="0" shadow="0">
      <root>
        <mxCell id="WIyWlLk6GJQsqaUBKTNV-0" />
        <mxCell id="WIyWlLk6GJQsqaUBKTNV-1" parent="WIyWlLk6GJQsqaUBKTNV-0" />
        <mxCell id="zkfFHV4jXpPFQw0GAbJ--0" value="Funcionário" style="swimlane;fontStyle=0;align=center;verticalAlign=top;childLayout=stackLayout;horizontal=1;startSize=26;horizontalStack=0;resizeParent=1;resizeLast=0;collapsible=1;marginBottom=0;rounded=0;shadow=0;strokeWidth=1;" parent="WIyWlLk6GJQsqaUBKTNV-1" vertex="1">
          <mxGeometry x="84" y="400" width="160" height="280" as="geometry">
            <mxRectangle x="220" y="120" width="160" height="26" as="alternateBounds" />
          </mxGeometry>
        </mxCell>
        <mxCell id="zkfFHV4jXpPFQw0GAbJ--1" value="CPF" style="text;align=left;verticalAlign=top;spacingLeft=4;spacingRight=4;overflow=hidden;rotatable=0;points=[[0,0.5],[1,0.5]];portConstraint=eastwest;fontStyle=4" parent="zkfFHV4jXpPFQw0GAbJ--0" vertex="1">
          <mxGeometry y="26" width="160" height="26" as="geometry" />
        </mxCell>
        <mxCell id="zkfFHV4jXpPFQw0GAbJ--2" value="Nome" style="text;align=left;verticalAlign=top;spacingLeft=4;spacingRight=4;overflow=hidden;rotatable=0;points=[[0,0.5],[1,0.5]];portConstraint=eastwest;rounded=0;shadow=0;html=0;" parent="zkfFHV4jXpPFQw0GAbJ--0" vertex="1">
          <mxGeometry y="52" width="160" height="26" as="geometry" />
        </mxCell>
        <mxCell id="kACl6MTAWJLx-ftgwizv-12" value="" style="endArrow=none;html=1;rounded=0;exitX=0.031;exitY=-0.115;exitDx=0;exitDy=0;exitPerimeter=0;entryX=0.981;entryY=-0.115;entryDx=0;entryDy=0;entryPerimeter=0;" edge="1" parent="zkfFHV4jXpPFQw0GAbJ--0">
          <mxGeometry width="50" height="50" relative="1" as="geometry">
            <mxPoint x="8.000000000000043" y="78" as="sourcePoint" />
            <mxPoint x="160.00000000000003" y="78" as="targetPoint" />
          </mxGeometry>
        </mxCell>
        <mxCell id="zkfFHV4jXpPFQw0GAbJ--3" value="Endereço" style="text;align=left;verticalAlign=top;spacingLeft=4;spacingRight=4;overflow=hidden;rotatable=0;points=[[0,0.5],[1,0.5]];portConstraint=eastwest;rounded=0;shadow=0;html=0;" parent="zkfFHV4jXpPFQw0GAbJ--0" vertex="1">
          <mxGeometry y="78" width="160" height="26" as="geometry" />
        </mxCell>
        <mxCell id="kACl6MTAWJLx-ftgwizv-13" value="" style="endArrow=none;html=1;rounded=0;exitX=0.031;exitY=-0.115;exitDx=0;exitDy=0;exitPerimeter=0;entryX=0.981;entryY=-0.115;entryDx=0;entryDy=0;entryPerimeter=0;" edge="1" parent="zkfFHV4jXpPFQw0GAbJ--0">
          <mxGeometry width="50" height="50" relative="1" as="geometry">
            <mxPoint x="8.000000000000028" y="104" as="sourcePoint" />
            <mxPoint x="160.00000000000003" y="104" as="targetPoint" />
          </mxGeometry>
        </mxCell>
        <mxCell id="kACl6MTAWJLx-ftgwizv-0" value="Sexo" style="text;align=left;verticalAlign=top;spacingLeft=4;spacingRight=4;overflow=hidden;rotatable=0;points=[[0,0.5],[1,0.5]];portConstraint=eastwest;rounded=0;shadow=0;html=0;" vertex="1" parent="zkfFHV4jXpPFQw0GAbJ--0">
          <mxGeometry y="104" width="160" height="26" as="geometry" />
        </mxCell>
        <mxCell id="kACl6MTAWJLx-ftgwizv-14" value="" style="endArrow=none;html=1;rounded=0;exitX=0.031;exitY=-0.115;exitDx=0;exitDy=0;exitPerimeter=0;entryX=0.981;entryY=-0.115;entryDx=0;entryDy=0;entryPerimeter=0;" edge="1" parent="zkfFHV4jXpPFQw0GAbJ--0">
          <mxGeometry width="50" height="50" relative="1" as="geometry">
            <mxPoint x="8.000000000000028" y="130" as="sourcePoint" />
            <mxPoint x="160.00000000000003" y="130" as="targetPoint" />
          </mxGeometry>
        </mxCell>
        <mxCell id="kACl6MTAWJLx-ftgwizv-2" value="Telefone" style="text;align=left;verticalAlign=top;spacingLeft=4;spacingRight=4;overflow=hidden;rotatable=0;points=[[0,0.5],[1,0.5]];portConstraint=eastwest;rounded=0;shadow=0;html=0;" vertex="1" parent="zkfFHV4jXpPFQw0GAbJ--0">
          <mxGeometry y="130" width="160" height="26" as="geometry" />
        </mxCell>
        <mxCell id="kACl6MTAWJLx-ftgwizv-16" value="" style="endArrow=none;html=1;rounded=0;exitX=0.031;exitY=-0.115;exitDx=0;exitDy=0;exitPerimeter=0;entryX=0.981;entryY=-0.115;entryDx=0;entryDy=0;entryPerimeter=0;" edge="1" parent="zkfFHV4jXpPFQw0GAbJ--0">
          <mxGeometry width="50" height="50" relative="1" as="geometry">
            <mxPoint x="4.000000000000028" y="156" as="sourcePoint" />
            <mxPoint x="156.00000000000003" y="156" as="targetPoint" />
          </mxGeometry>
        </mxCell>
        <mxCell id="kACl6MTAWJLx-ftgwizv-3" value="Salário" style="text;align=left;verticalAlign=top;spacingLeft=4;spacingRight=4;overflow=hidden;rotatable=0;points=[[0,0.5],[1,0.5]];portConstraint=eastwest;rounded=0;shadow=0;html=0;" vertex="1" parent="zkfFHV4jXpPFQw0GAbJ--0">
          <mxGeometry y="156" width="160" height="26" as="geometry" />
        </mxCell>
        <mxCell id="kACl6MTAWJLx-ftgwizv-10" value="" style="endArrow=none;html=1;rounded=0;exitX=0.031;exitY=-0.115;exitDx=0;exitDy=0;exitPerimeter=0;entryX=0.981;entryY=-0.115;entryDx=0;entryDy=0;entryPerimeter=0;" edge="1" parent="zkfFHV4jXpPFQw0GAbJ--0" source="zkfFHV4jXpPFQw0GAbJ--2" target="zkfFHV4jXpPFQw0GAbJ--2">
          <mxGeometry width="50" height="50" relative="1" as="geometry">
            <mxPoint x="306" y="150" as="sourcePoint" />
            <mxPoint x="356" y="100" as="targetPoint" />
          </mxGeometry>
        </mxCell>
        <mxCell id="kACl6MTAWJLx-ftgwizv-17" value="" style="endArrow=none;html=1;rounded=0;exitX=0.031;exitY=-0.115;exitDx=0;exitDy=0;exitPerimeter=0;entryX=0.981;entryY=-0.115;entryDx=0;entryDy=0;entryPerimeter=0;" edge="1" parent="zkfFHV4jXpPFQw0GAbJ--0">
          <mxGeometry width="50" height="50" relative="1" as="geometry">
            <mxPoint x="4.000000000000028" y="182" as="sourcePoint" />
            <mxPoint x="156.00000000000003" y="182" as="targetPoint" />
          </mxGeometry>
        </mxCell>
        <mxCell id="kACl6MTAWJLx-ftgwizv-24" value="Horas trabalhadas" style="text;align=left;verticalAlign=top;spacingLeft=4;spacingRight=4;overflow=hidden;rotatable=0;points=[[0,0.5],[1,0.5]];portConstraint=eastwest;fontStyle=0" vertex="1" parent="zkfFHV4jXpPFQw0GAbJ--0">
          <mxGeometry y="182" width="160" height="26" as="geometry" />
        </mxCell>
        <mxCell id="kACl6MTAWJLx-ftgwizv-25" value="" style="endArrow=none;html=1;rounded=0;exitX=0.031;exitY=-0.115;exitDx=0;exitDy=0;exitPerimeter=0;entryX=0.981;entryY=-0.115;entryDx=0;entryDy=0;entryPerimeter=0;" edge="1" parent="zkfFHV4jXpPFQw0GAbJ--0">
          <mxGeometry width="50" height="50" relative="1" as="geometry">
            <mxPoint x="4" y="208" as="sourcePoint" />
            <mxPoint x="156" y="208" as="targetPoint" />
          </mxGeometry>
        </mxCell>
        <mxCell id="kACl6MTAWJLx-ftgwizv-31" value="Departamento" style="text;align=left;verticalAlign=top;spacingLeft=4;spacingRight=4;overflow=hidden;rotatable=0;points=[[0,0.5],[1,0.5]];portConstraint=eastwest;fontStyle=0" vertex="1" parent="zkfFHV4jXpPFQw0GAbJ--0">
          <mxGeometry y="208" width="160" height="26" as="geometry" />
        </mxCell>
        <mxCell id="zkfFHV4jXpPFQw0GAbJ--17" value="Departamento" style="swimlane;fontStyle=0;align=center;verticalAlign=top;childLayout=stackLayout;horizontal=1;startSize=26;horizontalStack=0;resizeParent=1;resizeLast=0;collapsible=1;marginBottom=0;rounded=0;shadow=0;strokeWidth=1;" parent="WIyWlLk6GJQsqaUBKTNV-1" vertex="1">
          <mxGeometry x="328" y="400" width="160" height="230" as="geometry">
            <mxRectangle x="550" y="140" width="160" height="26" as="alternateBounds" />
          </mxGeometry>
        </mxCell>
        <mxCell id="zkfFHV4jXpPFQw0GAbJ--18" value="Sigla" style="text;align=left;verticalAlign=top;spacingLeft=4;spacingRight=4;overflow=hidden;rotatable=0;points=[[0,0.5],[1,0.5]];portConstraint=eastwest;fontStyle=4" parent="zkfFHV4jXpPFQw0GAbJ--17" vertex="1">
          <mxGeometry y="26" width="160" height="26" as="geometry" />
        </mxCell>
        <mxCell id="kACl6MTAWJLx-ftgwizv-18" value="" style="endArrow=none;html=1;rounded=0;exitX=0.031;exitY=-0.115;exitDx=0;exitDy=0;exitPerimeter=0;entryX=0.981;entryY=-0.115;entryDx=0;entryDy=0;entryPerimeter=0;" edge="1" parent="zkfFHV4jXpPFQw0GAbJ--17">
          <mxGeometry width="50" height="50" relative="1" as="geometry">
            <mxPoint y="51" as="sourcePoint" />
            <mxPoint x="152" y="51" as="targetPoint" />
          </mxGeometry>
        </mxCell>
        <mxCell id="zkfFHV4jXpPFQw0GAbJ--19" value="Nome" style="text;align=left;verticalAlign=top;spacingLeft=4;spacingRight=4;overflow=hidden;rotatable=0;points=[[0,0.5],[1,0.5]];portConstraint=eastwest;rounded=0;shadow=0;html=0;" parent="zkfFHV4jXpPFQw0GAbJ--17" vertex="1">
          <mxGeometry y="52" width="160" height="26" as="geometry" />
        </mxCell>
        <mxCell id="kACl6MTAWJLx-ftgwizv-19" value="" style="endArrow=none;html=1;rounded=0;exitX=0.031;exitY=-0.115;exitDx=0;exitDy=0;exitPerimeter=0;entryX=0.981;entryY=-0.115;entryDx=0;entryDy=0;entryPerimeter=0;" edge="1" parent="zkfFHV4jXpPFQw0GAbJ--17">
          <mxGeometry width="50" height="50" relative="1" as="geometry">
            <mxPoint y="78" as="sourcePoint" />
            <mxPoint x="152" y="78" as="targetPoint" />
          </mxGeometry>
        </mxCell>
        <mxCell id="zkfFHV4jXpPFQw0GAbJ--20" value="Local" style="text;align=left;verticalAlign=top;spacingLeft=4;spacingRight=4;overflow=hidden;rotatable=0;points=[[0,0.5],[1,0.5]];portConstraint=eastwest;rounded=0;shadow=0;html=0;" parent="zkfFHV4jXpPFQw0GAbJ--17" vertex="1">
          <mxGeometry y="78" width="160" height="26" as="geometry" />
        </mxCell>
        <mxCell id="kACl6MTAWJLx-ftgwizv-20" value="" style="endArrow=none;html=1;rounded=0;exitX=0.031;exitY=-0.115;exitDx=0;exitDy=0;exitPerimeter=0;entryX=0.981;entryY=-0.115;entryDx=0;entryDy=0;entryPerimeter=0;" edge="1" parent="zkfFHV4jXpPFQw0GAbJ--17">
          <mxGeometry width="50" height="50" relative="1" as="geometry">
            <mxPoint x="4" y="104" as="sourcePoint" />
            <mxPoint x="156" y="104" as="targetPoint" />
          </mxGeometry>
        </mxCell>
        <mxCell id="kACl6MTAWJLx-ftgwizv-27" value="Projeto" style="text;align=left;verticalAlign=top;spacingLeft=4;spacingRight=4;overflow=hidden;rotatable=0;points=[[0,0.5],[1,0.5]];portConstraint=eastwest;rounded=0;shadow=0;html=0;" vertex="1" parent="zkfFHV4jXpPFQw0GAbJ--17">
          <mxGeometry y="104" width="160" height="26" as="geometry" />
        </mxCell>
        <mxCell id="kACl6MTAWJLx-ftgwizv-26" value="" style="endArrow=none;html=1;rounded=0;exitX=0.031;exitY=-0.115;exitDx=0;exitDy=0;exitPerimeter=0;entryX=0.981;entryY=-0.115;entryDx=0;entryDy=0;entryPerimeter=0;" edge="1" parent="zkfFHV4jXpPFQw0GAbJ--17">
          <mxGeometry width="50" height="50" relative="1" as="geometry">
            <mxPoint x="4" y="130" as="sourcePoint" />
            <mxPoint x="156" y="130" as="targetPoint" />
          </mxGeometry>
        </mxCell>
        <mxCell id="kACl6MTAWJLx-ftgwizv-32" value="Funcionário" style="text;align=left;verticalAlign=top;spacingLeft=4;spacingRight=4;overflow=hidden;rotatable=0;points=[[0,0.5],[1,0.5]];portConstraint=eastwest;rounded=0;shadow=0;html=0;" vertex="1" parent="zkfFHV4jXpPFQw0GAbJ--17">
          <mxGeometry y="130" width="160" height="26" as="geometry" />
        </mxCell>
        <mxCell id="kACl6MTAWJLx-ftgwizv-29" value="" style="endArrow=none;html=1;rounded=0;exitX=0.031;exitY=-0.115;exitDx=0;exitDy=0;exitPerimeter=0;entryX=0.981;entryY=-0.115;entryDx=0;entryDy=0;entryPerimeter=0;" edge="1" parent="zkfFHV4jXpPFQw0GAbJ--17">
          <mxGeometry width="50" height="50" relative="1" as="geometry">
            <mxPoint x="4" y="156" as="sourcePoint" />
            <mxPoint x="156" y="156" as="targetPoint" />
          </mxGeometry>
        </mxCell>
        <mxCell id="kACl6MTAWJLx-ftgwizv-5" value="Projeto" style="swimlane;fontStyle=0;align=center;verticalAlign=top;childLayout=stackLayout;horizontal=1;startSize=26;horizontalStack=0;resizeParent=1;resizeLast=0;collapsible=1;marginBottom=0;rounded=0;shadow=0;strokeWidth=1;" vertex="1" parent="WIyWlLk6GJQsqaUBKTNV-1">
          <mxGeometry x="584" y="400" width="160" height="230" as="geometry">
            <mxRectangle x="550" y="140" width="160" height="26" as="alternateBounds" />
          </mxGeometry>
        </mxCell>
        <mxCell id="kACl6MTAWJLx-ftgwizv-6" value="Sigla" style="text;align=left;verticalAlign=top;spacingLeft=4;spacingRight=4;overflow=hidden;rotatable=0;points=[[0,0.5],[1,0.5]];portConstraint=eastwest;fontStyle=4" vertex="1" parent="kACl6MTAWJLx-ftgwizv-5">
          <mxGeometry y="26" width="160" height="26" as="geometry" />
        </mxCell>
        <mxCell id="kACl6MTAWJLx-ftgwizv-21" value="" style="endArrow=none;html=1;rounded=0;exitX=0.031;exitY=-0.115;exitDx=0;exitDy=0;exitPerimeter=0;entryX=0.981;entryY=-0.115;entryDx=0;entryDy=0;entryPerimeter=0;" edge="1" parent="kACl6MTAWJLx-ftgwizv-5">
          <mxGeometry width="50" height="50" relative="1" as="geometry">
            <mxPoint y="52" as="sourcePoint" />
            <mxPoint x="152" y="52" as="targetPoint" />
          </mxGeometry>
        </mxCell>
        <mxCell id="kACl6MTAWJLx-ftgwizv-7" value="Nome" style="text;align=left;verticalAlign=top;spacingLeft=4;spacingRight=4;overflow=hidden;rotatable=0;points=[[0,0.5],[1,0.5]];portConstraint=eastwest;rounded=0;shadow=0;html=0;" vertex="1" parent="kACl6MTAWJLx-ftgwizv-5">
          <mxGeometry y="52" width="160" height="26" as="geometry" />
        </mxCell>
        <mxCell id="kACl6MTAWJLx-ftgwizv-22" value="" style="endArrow=none;html=1;rounded=0;exitX=0.031;exitY=-0.115;exitDx=0;exitDy=0;exitPerimeter=0;entryX=0.981;entryY=-0.115;entryDx=0;entryDy=0;entryPerimeter=0;" edge="1" parent="kACl6MTAWJLx-ftgwizv-5">
          <mxGeometry width="50" height="50" relative="1" as="geometry">
            <mxPoint x="4" y="77" as="sourcePoint" />
            <mxPoint x="156" y="77" as="targetPoint" />
          </mxGeometry>
        </mxCell>
        <mxCell id="kACl6MTAWJLx-ftgwizv-8" value="Data de conclusão" style="text;align=left;verticalAlign=top;spacingLeft=4;spacingRight=4;overflow=hidden;rotatable=0;points=[[0,0.5],[1,0.5]];portConstraint=eastwest;rounded=0;shadow=0;html=0;" vertex="1" parent="kACl6MTAWJLx-ftgwizv-5">
          <mxGeometry y="78" width="160" height="26" as="geometry" />
        </mxCell>
        <mxCell id="kACl6MTAWJLx-ftgwizv-23" value="" style="endArrow=none;html=1;rounded=0;exitX=0.031;exitY=-0.115;exitDx=0;exitDy=0;exitPerimeter=0;entryX=0.981;entryY=-0.115;entryDx=0;entryDy=0;entryPerimeter=0;" edge="1" parent="kACl6MTAWJLx-ftgwizv-5">
          <mxGeometry width="50" height="50" relative="1" as="geometry">
            <mxPoint x="4" y="104" as="sourcePoint" />
            <mxPoint x="156" y="104" as="targetPoint" />
          </mxGeometry>
        </mxCell>
        <mxCell id="kACl6MTAWJLx-ftgwizv-35" value="Departamento" style="text;align=left;verticalAlign=top;spacingLeft=4;spacingRight=4;overflow=hidden;rotatable=0;points=[[0,0.5],[1,0.5]];portConstraint=eastwest;rounded=0;shadow=0;html=0;" vertex="1" parent="kACl6MTAWJLx-ftgwizv-5">
          <mxGeometry y="104" width="160" height="26" as="geometry" />
        </mxCell>
        <mxCell id="kACl6MTAWJLx-ftgwizv-36" value="" style="endArrow=none;html=1;rounded=0;exitX=0.031;exitY=-0.115;exitDx=0;exitDy=0;exitPerimeter=0;entryX=0.981;entryY=-0.115;entryDx=0;entryDy=0;entryPerimeter=0;" edge="1" parent="kACl6MTAWJLx-ftgwizv-5">
          <mxGeometry width="50" height="50" relative="1" as="geometry">
            <mxPoint x="8" y="130" as="sourcePoint" />
            <mxPoint x="160" y="130" as="targetPoint" />
          </mxGeometry>
        </mxCell>
        <mxCell id="kACl6MTAWJLx-ftgwizv-34" style="edgeStyle=orthogonalEdgeStyle;rounded=0;orthogonalLoop=1;jettySize=auto;html=1;" edge="1" parent="WIyWlLk6GJQsqaUBKTNV-1" source="kACl6MTAWJLx-ftgwizv-31" target="kACl6MTAWJLx-ftgwizv-32">
          <mxGeometry relative="1" as="geometry" />
        </mxCell>
        <mxCell id="kACl6MTAWJLx-ftgwizv-37" style="edgeStyle=orthogonalEdgeStyle;rounded=0;orthogonalLoop=1;jettySize=auto;html=1;exitX=1;exitY=0.5;exitDx=0;exitDy=0;entryX=0;entryY=0.5;entryDx=0;entryDy=0;" edge="1" parent="WIyWlLk6GJQsqaUBKTNV-1" source="kACl6MTAWJLx-ftgwizv-27" target="kACl6MTAWJLx-ftgwizv-35">
          <mxGeometry relative="1" as="geometry" />
        </mxCell>
        <mxCell id="kACl6MTAWJLx-ftgwizv-39" style="edgeStyle=orthogonalEdgeStyle;rounded=0;orthogonalLoop=1;jettySize=auto;html=1;exitX=1;exitY=0.5;exitDx=0;exitDy=0;entryX=0;entryY=0.5;entryDx=0;entryDy=0;" edge="1" parent="WIyWlLk6GJQsqaUBKTNV-1" source="kACl6MTAWJLx-ftgwizv-24" target="kACl6MTAWJLx-ftgwizv-8">
          <mxGeometry relative="1" as="geometry">
            <mxPoint x="570" y="490" as="targetPoint" />
            <Array as="points">
              <mxPoint x="270" y="595" />
              <mxPoint x="270" y="320" />
              <mxPoint x="570" y="320" />
              <mxPoint x="570" y="491" />
            </Array>
          </mxGeometry>
        </mxCell>
      </root>
    </mxGraphModel>
  </diagram>
</mxfile>
